/* XPM */
static char * mobius_xpm[] = {
"58 50 255 2",
"  	c #110102",
". 	c #010B13",
"+ 	c #1B0202",
"@ 	c #220101",
"# 	c #250003",
"$ 	c #020F1A",
"% 	c #290200",
"& 	c #2E0001",
"* 	c #350000",
"= 	c #021422",
"- 	c #3C0100",
"; 	c #0C1519",
"> 	c #011829",
", 	c #410002",
"' 	c #450000",
") 	c #0B1822",
"! 	c #041B2D",
"~ 	c #001D34",
"{ 	c #4E0000",
"] 	c #012037",
"^ 	c #560000",
"/ 	c #131E21",
"( 	c #092032",
"_ 	c #460A06",
": 	c #191F1B",
"< 	c #600001",
"[ 	c #5B0300",
"} 	c #0E222D",
"| 	c #05243B",
"1 	c #2A1818",
"2 	c #1D1F18",
"3 	c #640200",
"4 	c #3A1413",
"5 	c #0C2538",
"6 	c #6A0001",
"7 	c #212314",
"8 	c #072942",
"9 	c #6E0100",
"0 	c #24250F",
"a 	c #730001",
"b 	c #26280C",
"c 	c #780100",
"d 	c #0E2C3E",
"e 	c #2F2315",
"f 	c #551114",
"g 	c #7F0002",
"h 	c #1C2B2E",
"i 	c #820100",
"j 	c #272A22",
"k 	c #192D39",
"l 	c #252B28",
"m 	c #8A0002",
"n 	c #252B30",
"o 	c #362525",
"p 	c #8D0000",
"q 	c #940001",
"r 	c #2F2F1F",
"s 	c #7F0B0C",
"t 	c #980100",
"u 	c #56201F",
"v 	c #A00001",
"w 	c #671919",
"x 	c #313611",
"y 	c #353418",
"z 	c #890C0B",
"A 	c #A40200",
"B 	c #263641",
"C 	c #4C2825",
"D 	c #3D3122",
"E 	c #41311A",
"F 	c #AB0000",
"G 	c #2A3838",
"H 	c #7C1515",
"I 	c #9C080A",
"J 	c #323639",
"K 	c #32382F",
"L 	c #AE000A",
"M 	c #3D3816",
"N 	c #393928",
"O 	c #433333",
"P 	c #483619",
"Q 	c #951110",
"R 	c #A70A07",
"S 	c #A60B0E",
"T 	c #7B1E1F",
"U 	c #B50807",
"V 	c #752726",
"W 	c #A41517",
"X 	c #464421",
"Y 	c #971C1D",
"Z 	c #B80F12",
"` 	c #444433",
" .	c #40453F",
"..	c #514227",
"+.	c #3D464E",
"@.	c #534420",
"#.	c #504233",
"$.	c #5D3F23",
"%.	c #6D3433",
"&.	c #414749",
"*.	c #4E4241",
"=.	c #4C4A1C",
"-.	c #902625",
";.	c #5E3C3C",
">.	c #55471D",
",.	c #823332",
"'.	c #BC1A1B",
").	c #B11F20",
"!.	c #A92626",
"~.	c #57531F",
"{.	c #C71C1B",
"].	c #913333",
"^.	c #55542F",
"/.	c #A62C2D",
"(.	c #545342",
"_.	c #4D5358",
":.	c #635127",
"<.	c #615032",
"[.	c #52534E",
"}.	c #5F503F",
"|.	c #704C28",
"1.	c #655322",
"2.	c #6B4E31",
"3.	c #5C5050",
"4.	c #7E4241",
"5.	c #9F3434",
"6.	c #BE2728",
"7.	c #774C24",
"8.	c #6D4B4A",
"9.	c #914141",
"0.	c #BA3131",
"a.	c #D12828",
"b.	c #5E5F5B",
"c.	c #B6393A",
"d.	c #6C603B",
"e.	c #84572E",
"f.	c #785C34",
"g.	c #765C3D",
"h.	c #CD3332",
"i.	c #6B5E5F",
"j.	c #6B6151",
"k.	c #8D5050",
"l.	c #AE4242",
"m.	c #7D6031",
"n.	c #7D5958",
"o.	c #D83234",
"p.	c #756631",
"q.	c #A84847",
"r.	c #845E3C",
"s.	c #CD3A3C",
"t.	c #E13138",
"u.	c #A04E4E",
"v.	c #C83E3B",
"w.	c #C74545",
"x.	c #E33C3B",
"y.	c #7D6E49",
"z.	c #BB4F4F",
"A.	c #876B49",
"B.	c #95673A",
"C.	c #B55352",
"D.	c #7F6C6B",
"E.	c #6E7376",
"F.	c #936464",
"G.	c #B25757",
"H.	c #8B6868",
"I.	c #9E6060",
"J.	c #777170",
"K.	c #AC5B5B",
"L.	c #E24543",
"M.	c #E84345",
"N.	c #DD494A",
"O.	c #78786F",
"P.	c #757B80",
"Q.	c #A7703E",
"R.	c #8A7A61",
"S.	c #D25858",
"T.	c #99794F",
"U.	c #827E7C",
"V.	c #C56161",
"W.	c #CA5F5F",
"X.	c #828077",
"Y.	c #BE6666",
"Z.	c #EA5454",
"`.	c #967A79",
" +	c #A37575",
".+	c #B0706F",
"++	c #B76D6C",
"@+	c #AB7372",
"#+	c #AC824E",
"$+	c #A9875C",
"%+	c #F46162",
"&+	c #968D80",
"*+	c #E76A6A",
"=+	c #DC6F6E",
"-+	c #978F8E",
";+	c #D97374",
">+	c #D37877",
",+	c #C87D7D",
"'+	c #A88B8A",
")+	c #B58685",
"!+	c #BC8383",
"~+	c #C28180",
"{+	c #B99665",
"]+	c #C1975C",
"^+	c #F87A7A",
"/+	c #E48686",
"(+	c #A8A09F",
"_+	c #D28F8E",
":+	c #D98D8D",
"<+	c #BB9A9A",
"[+	c #B39E9D",
"}+	c #F38381",
"|+	c #C69696",
"1+	c #CD9393",
"2+	c #FD8C8C",
"3+	c #ABAFB0",
"4+	c #E29E9C",
"5+	c #BCAFB0",
"6+	c #DEA2A4",
"7+	c #C3AEAE",
"8+	c #F99797",
"9+	c #CBABAA",
"0+	c #EC9D9D",
"a+	c #D7A7A6",
"b+	c #B5B7B7",
"c+	c #B9B7AE",
"d+	c #BCBDBD",
"e+	c #C4BEB7",
"f+	c #FEA7A7",
"g+	c #D9B7B7",
"h+	c #E1B4B5",
"i+	c #CEC1C2",
"j+	c #F0B3B2",
"k+	c #D5BFBF",
"l+	c #FBAFB0",
"m+	c #CCC7C5",
"n+	c #E1C0C0",
"o+	c #D8CFCE",
"p+	c #EACAC9",
"q+	c #FDC2C2",
"r+	c #E6D1D1",
"s+	c #E0D7D7",
"t+	c #FCCECD",
"u+	c #E7E1E0",
"v+	c #EDDFE0",
"w+	c #F3DEDF",
"x+	c #FEDADA",
"y+	c #F4E7E8",
"z+	c #F0EAE9",
"A+	c #FFEBED",
"B+	c #F8F2F1",
"C+	c #FDF0F0",
"D+	c #F8FAF7",
"E+	c #FFFAF8",
"F+	c #FCFFFB",
"F+F+F+F+F+F+F+F+F+F+F+F+F+F+F+F+F+F+F+F+F+F+F+F+F+F+F+F+F+F+F+F+F+F+F+F+F+F+F+F+F+F+F+F+F+F+F+F+F+F+F+F+F+F+F+F+F+F+",
"E+E+E+E+E+E+E+E+E+E+E+E+E+E+E+E+E+E+E+E+E+E+E+E+E+E+E+E+E+E+E+E+E+E+E+E+E+E+E+E+E+E+E+E+E+E+E+E+E+E+E+E+E+E+E+E+E+E+",
"D+D+D+D+D+D+D+D+D+D+D+D+D+D+D+D+D+D+D+D+D+D+E+B+r+r+r+y+E+D+D+D+D+D+D+D+D+D+D+D+D+D+D+D+D+D+D+D+D+D+D+D+D+D+D+D+D+D+",
"E+F+E+F+E+F+E+F+E+F+E+F+E+F+E+F+E+F+E+y+_+z.W I I I v q W c.>+p+E+F+E+F+E+F+E+F+E+F+E+F+E+F+E+F+E+F+E+F+E+F+E+F+E+F+",
"F+F+F+F+F+F+F+F+F+F+F+F+F+F+F+F+F+p+z.S v q q p i c a 9 9 a s Q c.4+z+F+F+F+F+F+F+F+F+F+F+F+F+F+F+F+F+F+F+F+F+F+F+F+",
"E+E+E+E+E+E+E+E+E+E+E+E+E+E+E+y+Y.I t q q m i i g a 9 3 ^ ^ ^ ^ < s c.6+B+E+E+E+E+E+E+E+E+E+E+E+E+E+E+E+E+E+E+E+E+E+",
"D+D+D+D+D+D+D+D+D+D+D+D+D+D+r+!.t R t q q p i c c 6 6 < { ' , - * , { s W.w+D+D+D+D+D+D+D+D+D+D+D+D+D+D+D+D+D+D+D+D+",
"F+E+F+E+F+E+F+E+F+E+F+E+F+n+W v v t v q p p m i a a < ^ ^ ' , & % @ @ % ^ /.h+F+E+F+E+F+E+F+E+F+E+F+E+F+E+F+E+F+E+F+",
"F+F+F+F+F+F+F+F+F+F+F+F+p+Q v v v v v v q p p i c a 6 ^ ^ , * & @ + +   + - Q 1+F+F+F+F+F+F+F+F+F+F+F+F+F+F+F+F+F+F+",
"E+E+E+E+E+E+E+E+E+E+E+y+/.v v v v v S v t q m m g a < ^ ' - & @             & I !+E+E+E+E+E+E+E+E+E+E+E+E+E+E+E+E+E+",
"D+D+D+D+D+D+D+D+D+D+D+K.q t F F L {.o.Z v q p i c 6 { u D.-+m+u+z+z+u+m+-+3.  * I !+B+D+D+D+D+D+D+D+D+D+D+D+D+D+D+D+",
"E+F+E+F+E+F+E+F+E+F+p+m q v v L Z ^+l+o.I q i 6 w `.o+D+E+D+D+D+D+D+D+D+E+D+u+i., q ,.r+E+F+E+F+E+F+E+F+E+F+E+F+E+F+",
"F+F+F+F+F+F+F+F+F+D+u.q v v A F o.t+x+'.q i ,.5+B+D+D+F+F+E+F+F+D+D+D+D+E+D+D+D+U.a i H |+F+F+F+F+F+F+F+F+F+F+F+F+F+",
"E+E+E+E+E+E+E+E+E+v+z q v A A F Z.B+w.q T [+D+D+D+F+F+E+E+F+E+E+F+F+F+F+F+D+D+E+E+8.q i s .+E+E+E+E+E+E+E+E+E+E+E+E+",
"D+D+D+D+D+D+D+D+D+)+m q v A v L q+;+z )+B+D+E+D+E+E+F+D+E+D+D+E+E+E+E+F+E+F+F+D+D+u+w p g z ++E+D+D+D+D+D+D+D+D+D+D+",
"E+F+E+F+E+F+E+F+D+].m q I A F =+>+].s+D+D+F+F+D+D+F+E+D+D+F+D+D+D+D+D+E+F+D+E+F+D+D+H.t g m i !+E+F+E+F+E+F+E+F+E+F+",
"F+F+F+F+F+F+E+D+B+a z t t F s.>+.+B+D+D+E+D+E+F+E+D+E+F+F+E+F+E+F+F+D+E+D+D+D+E+F+F+u+c m m p Q n+F+F+F+F+F+F+F+F+F+",
"E+E+E+E+E+E+D+F+o+a i p A 6.Y.|+D+D+F+D+D+F+F+D+D+F+F+D+E+F+F+F+F+E+D+D+F+F+E+F+F+D+D+9.q m p t Y C+E+E+E+E+E+E+E+E+",
"D+D+D+D+D+D+E+E+7+c i q F S.7+E+F+F+E+F+E+D+E+F+B+d+X.b.&.3.U.d+D+E+F+E+D+F+E+D+D+D+D+'+q p p q q ,+D+D+D+D+D+D+D+D+",
"F+E+F+E+F+E+D+D+)+a i v 0.9+E+F+E+E+F+D+D+F+F+3+J N ..M b r ..l J 3+D+D+D+E+D+F+D+D+D+i+m q q q R Q z+F+E+F+E+F+E+F+",
"F+F+F+F+F+E+F+D+)+6 m L )+D+E+D+D+D+E+F+E+B+E.$ j <.y.~.x x x ) = = E.D+D+D+E+F+E+E+D+u+g q q q v v _+D+F+F+F+F+F+F+",
"E+E+E+E+E+F+F+D+ +a I u.D+E+D+F+F+E+F+D+D+E.$ = #.y.y.~.x x / = = = = E.F+E+D+E+F+F+E+D+6 q q t v v /.E+F+E+E+E+E+E+",
"D+D+D+D+E+E+E+D+ +p z u+D+D+E+D+F+F+E+F+3+$ = > } (.d.G } h | > = > > = 5+D+D+E+E+F+D+E+H q q v R R v w+D+D+D+D+D+D+",
"E+F+E+D+D+D+F+E+I.p  +D+E+D+D+F+E+E+F+E+B = = > ~ h y.h k | k 5 ! > > > B D+D+D+D+E+F+D+H q q v v A R |+E+F+E+F+E+F+",
"F+F+E+F+F+F+D+E+].a (+D+E+F+E+D+D+E+E+d+$ > > ! ~ ] h G ^.G | | ~ ~ ! ! > d+D+F+D+E+D+D+6 q q v A A F >+F+F+F+F+F+F+",
"E+E+F+F+E+E+F+z+m * J.F+F+D+D+D+D+D+D+P.= > ~ ! | | | 5 ] G d K K B ~ ~ > P.F+E+D+D+D+B+6 q q v A F R C.E+E+E+E+E+E+",
"D+E+E+F+D+D+E+n+g + o D+E+F+F+E+F+D+E++.= > ~ ] | | | | 8 8 d y.=.d.K ! ~ _.D+E+F+E+D+s+a q q A A F L l.E+D+D+D+D+D+",
"D+D+D+E+F+E+E+)+6 + + i+F+D+E+F+F+D+D++.= > ! ! ] | | | 8 8 (.=.x X x h > +.E+F+F+F+F+[+g q v v F F F c.D+F+E+F+E+F+",
"F+F+D+D+F+D+E+K.^ # % 8.D+D+E+E+F+F+E+_.= = ] ! ] ] ] ] | | (.x b b x x N _.E+E+E+D+D+ +g q t t A F F c.D+F+F+F+F+F+",
"D+E+F+E+F+F+D+q.{ & - , i+D+D+D+E+E+D+P.= ) > ! ~ ] ] ] ] | G X b x x @.j P.D+D+D+F+E+%.i p t v A F A V.F+E+E+E+E+E+",
"D+D+F+E+D+F+D+5.^ , ' { %.E+D+D+D+E+E+b+$ = > > ! ~ ~ ~ ] ~ ] b.d.b =.@.$ d+E+F+E+D+v+3 m q t v L U L ,+E+D+D+D+D+D+",
"F+E+D+D+D+E+F+l.< { ^ < < '+E+F+E+D+D+E+n $ = > > > > > > ! > k y.E X : B B+F+D+D+E+'+a m q v v R a.F h+F+F+E+F+E+F+",
"F+E+F+F+D+E+D+q.6 ^ < 6 6 3 i+F+E+F+E+D+3+. $ = = > > > > > = *.E E : $ 3+D+E+F+F+D+%.a m q q v '.x.'.y+F+F+F+F+F+F+",
"E+F+F+E+D+D+D+Y.a 6 6 9 g g H v+F+F+F+D+E+E.. $ $ = = = = = = #.E ; $ E.D+F+F+F+E+i+< i m p I v {.M.z.D+F+E+E+E+E+E+",
"E+E+F+E+F+F+D+1+m a a c i i m ].y+D+E+D+D+D+E.. . . $ $ $ $ / o . . E.D+E+E+E+D+D+4.6 g m t q t L.s.h+E+D+D+D+D+D+D+",
"D+D+E+F+F+E+E+v+m g g i m q q q ].B+F+F+E+D+B+3+n . . . . . ; . n 3+E+E+D+D+D+F+5+^ a i m p q v *+w.D+D+F+F+E+F+E+F+",
"F+D+E+E+F+F+D+E+5.p m m p q v v I ].y+F+D+D+E+E+D+3+J.&.J _.J.b+B+D+D+D+E+F+F+D+u 3 a g i m I '.*+h+F+E+D+F+F+F+F+F+",
"E+D+D+F+E+E+F+D+a+q p q q v v L a.Z 5.w+F+F+D+D+E+E+D+E+E+E+D+E+D+D+F+E+D+D+E+H.^ 6 c i p q v S.>+D+D+D+F+E+E+E+E+E+",
"E+F+E+D+D+E+D+E+B+/.p q q v R a.q+x+=+!.g+D+D+D+D+D+D+F+D+D+D+D+F+F+F+F+E+D+-+' < 6 a g i q 6.=+z+E+F+E+D+D+D+D+D+D+",
"F+D+D+F+D+D+F+D+D+r+q I v v A '.2+q+2+Z.6.!+E+E+F+E+D+E+F+F+F+E+D+E+E+E+F+5+_ ^ < a c i q W ;+r+E+F+D+D+F+F+E+F+E+F+",
"E+F+F+E+F+E+D+D+E+E+1+t v v R Z {.{.U F U Z l.s+E+F+D+E+E+F+F+F+D+D+D+E+-+* , ^ < 9 g m S W.w+F+F+E+F+E+D+F+F+F+F+F+",
"F+D+E+F+D+D+F+D+D+F+E+,+q v A A F A L F R v R S ~+z+D+D+D+E+E+E+F+E+B+D.& - { ^ 6 c i ).>+y+E+E+F+F+D+D+F+E+E+E+E+E+",
"D+D+D+E+F+F+E+F+E+D+D+E+1+q A v F A A A v t t q R W .+s+D+D+D+D+E+(+o % * { < 3 g q c.6+E+D+D+E+D+E+F+E+D+D+D+D+D+D+",
"F+F+E+F+D+E+F+D+D+E+D+F+E+p+-.v v A v v q t q m i m I q 5.@+'+D.o + & , { < a Q c.:+y+E+E+F+D+D+F+F+D+D+F+F+E+F+E+F+",
"D+F+E+D+D+D+E+F+F+F+E+D+D+E+E+|+-.q q t q p p i a 9 6 6 a g I I Y z Q W W c.>+j+D+E+F+D+D+E+F+E+D+E+F+E+D+F+F+F+F+F+",
"D+E+D+F+F+E+F+F+E+E+D+F+F+D+D+D+E+k+.+5.s g g g c 6 < [ %.F.[+7+g+g+k+r+z+D+D+D+D+D+E+F+E+F+D+D+F+F+D+D+F+E+E+E+E+E+",
"D+D+E+F+F+E+E+F+D+D+E+F+E+F+F+D+E+E+D+E+z+s+k+g+k+k+u+B+D+D+D+D+D+D+D+D+F+F+D+E+F+D+D+F+F+E+F+E+D+E+F+E+D+D+D+D+D+D+",
"F+E+F+E+E+D+D+E+F+E+D+E+F+D+E+F+D+D+D+D+F+E+D+D+E+D+D+E+E+F+F+D+F+F+F+F+E+E+F+D+E+F+E+D+E+F+D+D+F+F+D+D+F+F+E+F+E+F+",
"F+E+D+D+D+F+D+D+F+F+D+E+D+D+D+E+F+F+F+F+F+D+D+D+F+F+D+D+E+F+F+E+E+E+E+F+D+E+D+D+D+F+F+D+D+E+F+E+D+E+F+E+D+F+F+F+F+F+",
"D+D+F+F+E+F+F+E+F+E+D+D+F+F+E+F+F+E+E+E+E+F+F+F+E+E+F+E+F+E+E+D+D+D+F+E+D+D+F+F+E+D+E+F+E+F+D+D+F+F+D+D+F+E+E+E+E+E+"};
